<mxfile host="app.diagrams.net" modified="2022-11-29T04:41:11.850Z" agent="5.0 (Windows)" etag="nTNBk9MRUXVh9mw79t_G" version="20.6.0" type="github">
  <diagram id="C5RBs43oDa-KdzZeNtuy" name="Page-1">
    <mxGraphModel dx="3412" dy="2587" grid="1" gridSize="10" guides="1" tooltips="1" connect="1" arrows="1" fold="1" page="1" pageScale="1" pageWidth="827" pageHeight="1169" math="0" shadow="0">
      <root>
        <mxCell id="WIyWlLk6GJQsqaUBKTNV-0" />
        <mxCell id="WIyWlLk6GJQsqaUBKTNV-1" parent="WIyWlLk6GJQsqaUBKTNV-0" />
        <mxCell id="zkfFHV4jXpPFQw0GAbJ--26" value="" style="endArrow=none;shadow=0;strokeWidth=1;rounded=0;endFill=0;edgeStyle=elbowEdgeStyle;elbow=vertical;strokeColor=default;startArrow=open;startFill=0;" parent="WIyWlLk6GJQsqaUBKTNV-1" edge="1">
          <mxGeometry x="0.5" y="41" relative="1" as="geometry">
            <mxPoint x="380" y="189" as="sourcePoint" />
            <mxPoint x="508" y="189" as="targetPoint" />
            <mxPoint x="-40" y="32" as="offset" />
          </mxGeometry>
        </mxCell>
        <mxCell id="zkfFHV4jXpPFQw0GAbJ--27" value="0..*" style="resizable=0;align=left;verticalAlign=bottom;labelBackgroundColor=none;fontSize=12;" parent="zkfFHV4jXpPFQw0GAbJ--26" connectable="0" vertex="1">
          <mxGeometry x="-1" relative="1" as="geometry">
            <mxPoint y="1" as="offset" />
          </mxGeometry>
        </mxCell>
        <mxCell id="zkfFHV4jXpPFQw0GAbJ--28" value="" style="resizable=0;align=right;verticalAlign=bottom;labelBackgroundColor=none;fontSize=12;" parent="zkfFHV4jXpPFQw0GAbJ--26" connectable="0" vertex="1">
          <mxGeometry x="1" relative="1" as="geometry">
            <mxPoint x="-7" y="4" as="offset" />
          </mxGeometry>
        </mxCell>
        <mxCell id="fP5dS_6nymFe7e1dq4BX-2" value="&lt;p style=&quot;margin:0px;margin-top:4px;text-align:center;&quot;&gt;&lt;b&gt;Course&lt;/b&gt;&lt;/p&gt;&lt;hr size=&quot;1&quot;&gt;&lt;p style=&quot;margin:0px;margin-left:4px;&quot;&gt;~id: String&lt;/p&gt;&lt;p style=&quot;margin:0px;margin-left:4px;&quot;&gt;&lt;span style=&quot;background-color: initial;&quot;&gt;~name: String&lt;/span&gt;&lt;/p&gt;&lt;p style=&quot;margin:0px;margin-left:4px;&quot;&gt;&lt;span style=&quot;background-color: initial;&quot;&gt;~code: String&lt;/span&gt;&lt;/p&gt;&lt;p style=&quot;margin:0px;margin-left:4px;&quot;&gt;~description: String&lt;span style=&quot;background-color: initial;&quot;&gt;&lt;br&gt;&lt;/span&gt;&lt;/p&gt;&lt;p style=&quot;margin:0px;margin-left:4px;&quot;&gt;~instructor_username: String&lt;br&gt;&lt;/p&gt;&lt;p style=&quot;margin:0px;margin-left:4px;&quot;&gt;~capacity: int&lt;br&gt;&lt;/p&gt;&lt;hr size=&quot;1&quot;&gt;&lt;p style=&quot;margin:0px;margin-left:4px;&quot;&gt;+getId(): String&lt;/p&gt;&lt;p style=&quot;margin:0px;margin-left:4px;&quot;&gt;+getName(): String&lt;/p&gt;&lt;p style=&quot;margin:0px;margin-left:4px;&quot;&gt;+getCode(): String&lt;/p&gt;&lt;p style=&quot;margin:0px;margin-left:4px;&quot;&gt;+getInstructor(): String&lt;br&gt;&lt;/p&gt;&lt;p style=&quot;margin:0px;margin-left:4px;&quot;&gt;+getDescription(): String&lt;br&gt;&lt;/p&gt;&lt;p style=&quot;margin:0px;margin-left:4px;&quot;&gt;+getCapacity(): int&lt;br&gt;&lt;/p&gt;&lt;p style=&quot;margin:0px;margin-left:4px;&quot;&gt;&lt;br&gt;&lt;/p&gt;" style="verticalAlign=top;align=left;overflow=fill;fontSize=12;fontFamily=Helvetica;html=1;" parent="WIyWlLk6GJQsqaUBKTNV-1" vertex="1">
          <mxGeometry x="170" y="110" width="210" height="220" as="geometry" />
        </mxCell>
        <mxCell id="fP5dS_6nymFe7e1dq4BX-3" value="&lt;p style=&quot;margin:0px;margin-top:4px;text-align:center;&quot;&gt;&lt;b&gt;User&lt;/b&gt;&lt;/p&gt;&lt;hr size=&quot;1&quot;&gt;&lt;p style=&quot;margin:0px;margin-left:4px;&quot;&gt;~id: String&lt;/p&gt;&lt;p style=&quot;margin:0px;margin-left:4px;&quot;&gt;&lt;span style=&quot;background-color: initial;&quot;&gt;~username: String&lt;/span&gt;&lt;/p&gt;&lt;p style=&quot;margin:0px;margin-left:4px;&quot;&gt;&lt;span style=&quot;background-color: initial;&quot;&gt;~role: String&amp;nbsp;&lt;/span&gt;&lt;/p&gt;&lt;hr size=&quot;1&quot;&gt;&lt;p style=&quot;margin:0px;margin-left:4px;&quot;&gt;+getId(): String&lt;/p&gt;&lt;p style=&quot;margin:0px;margin-left:4px;&quot;&gt;+getUsername(): String&lt;/p&gt;&lt;p style=&quot;margin:0px;margin-left:4px;&quot;&gt;+getRole(): String&lt;/p&gt;&lt;p style=&quot;margin:0px;margin-left:4px;&quot;&gt;&lt;br&gt;&lt;/p&gt;&lt;p style=&quot;margin:0px;margin-left:4px;&quot;&gt;&lt;br&gt;&lt;/p&gt;" style="verticalAlign=top;align=left;overflow=fill;fontSize=12;fontFamily=Helvetica;html=1;" parent="WIyWlLk6GJQsqaUBKTNV-1" vertex="1">
          <mxGeometry x="80" y="700" width="210" height="150" as="geometry" />
        </mxCell>
        <mxCell id="fP5dS_6nymFe7e1dq4BX-4" value="&lt;p style=&quot;margin:0px;margin-top:4px;text-align:center;&quot;&gt;&lt;b&gt;CourseManager&lt;/b&gt;&lt;/p&gt;&lt;hr size=&quot;1&quot;&gt;&lt;p style=&quot;margin:0px;margin-left:4px;&quot;&gt;~db: FirebaseFireStore&lt;/p&gt;&lt;p style=&quot;margin:0px;margin-left:4px;&quot;&gt;~coursesRef: CollectionReference&lt;/p&gt;&lt;p style=&quot;margin:0px;margin-left:4px;&quot;&gt;~recyclerView: RecyclerView&lt;/p&gt;&lt;p style=&quot;margin:0px;margin-left:4px;&quot;&gt;~courseAdapter: CourseAdapter&lt;/p&gt;&lt;p style=&quot;margin:0px;margin-left:4px;&quot;&gt;~courses: ArrayList&amp;lt;Course&amp;gt;&lt;/p&gt;&lt;p style=&quot;margin:0px;margin-left:4px;&quot;&gt;~add: Button&lt;/p&gt;&lt;p style=&quot;margin:0px;margin-left:4px;&quot;&gt;~search: Button&lt;/p&gt;&lt;p style=&quot;margin:0px;margin-left:4px;&quot;&gt;~inputName: EditText&lt;/p&gt;&lt;p style=&quot;margin:0px;margin-left:4px;&quot;&gt;~inputCode:EditText&lt;/p&gt;&lt;hr size=&quot;1&quot;&gt;&lt;p style=&quot;margin:0px;margin-left:4px;&quot;&gt;-fetchCourses(): void&lt;/p&gt;&lt;p style=&quot;margin:0px;margin-left:4px;&quot;&gt;-searchCourse(name: String, code: String): void&lt;/p&gt;&lt;p style=&quot;margin:0px;margin-left:4px;&quot;&gt;-assignInstructor(doc_id: String): void&lt;/p&gt;&lt;p style=&quot;margin:0px;margin-left:4px;&quot;&gt;-clearFields(): void&lt;br&gt;&lt;/p&gt;&lt;p style=&quot;margin:0px;margin-left:4px;&quot;&gt;-createButton(stringReference: int): Button&lt;/p&gt;&lt;p style=&quot;margin:0px;margin-left:4px;&quot;&gt;-adminPress(course: Course): void&lt;/p&gt;&lt;p style=&quot;margin:0px;margin-left:4px;&quot;&gt;-instructorPress(course: Course): void&lt;br&gt;&lt;/p&gt;&lt;p style=&quot;margin:0px;margin-left:4px;&quot;&gt;+areFieldsValid(context: Context, name:String, code: String): boolean&lt;/p&gt;&lt;p style=&quot;margin:0px;margin-left:4px;&quot;&gt;#onStart(): void&lt;/p&gt;&lt;p style=&quot;margin:0px;margin-left:4px;&quot;&gt;+onItemClick(course: Course): void&lt;/p&gt;&lt;p style=&quot;margin:0px;margin-left:4px;&quot;&gt;+addCourse(name: String, code: String): DocumentReference&lt;br&gt;&lt;/p&gt;" style="verticalAlign=top;align=left;overflow=fill;fontSize=12;fontFamily=Helvetica;html=1;" parent="WIyWlLk6GJQsqaUBKTNV-1" vertex="1">
          <mxGeometry x="510" y="13" width="400" height="335" as="geometry" />
        </mxCell>
        <mxCell id="fP5dS_6nymFe7e1dq4BX-97" style="edgeStyle=orthogonalEdgeStyle;rounded=0;orthogonalLoop=1;jettySize=auto;html=1;strokeColor=#000000;startArrow=none;startFill=0;endArrow=open;endFill=0;" parent="WIyWlLk6GJQsqaUBKTNV-1" source="fP5dS_6nymFe7e1dq4BX-5" edge="1">
          <mxGeometry relative="1" as="geometry">
            <mxPoint x="-210" y="852.5" as="targetPoint" />
          </mxGeometry>
        </mxCell>
        <mxCell id="fP5dS_6nymFe7e1dq4BX-5" value="&lt;p style=&quot;margin:0px;margin-top:4px;text-align:center;&quot;&gt;&lt;b&gt;UserManager&lt;/b&gt;&lt;/p&gt;&lt;hr size=&quot;1&quot;&gt;&lt;p style=&quot;margin:0px;margin-left:4px;&quot;&gt;~db: FirebaseFireStore&lt;/p&gt;&lt;p style=&quot;margin:0px;margin-left:4px;&quot;&gt;~usersRef: CollectionReference&lt;/p&gt;&lt;p style=&quot;margin:0px;margin-left:4px;&quot;&gt;~coursesRef: CollectionReference&lt;/p&gt;&lt;p style=&quot;margin:0px;margin-left:4px;&quot;&gt;~scheduleRef: CollectionReference&lt;/p&gt;&lt;p style=&quot;margin:0px;margin-left:4px;&quot;&gt;~enrollmentRef: CollectionReference&lt;/p&gt;&lt;p style=&quot;margin:0px;margin-left:4px;&quot;&gt;~recyclerView: RecyclerView&lt;/p&gt;&lt;p style=&quot;margin:0px;margin-left:4px;&quot;&gt;~userAdapter: UserAdapter&lt;/p&gt;&lt;p style=&quot;margin:0px;margin-left:4px;&quot;&gt;~users: ArrayList&amp;lt;User&amp;gt;&lt;/p&gt;&lt;hr size=&quot;1&quot;&gt;&lt;p style=&quot;margin:0px;margin-left:4px;&quot;&gt;-fetchUsers(): void&lt;/p&gt;&lt;p style=&quot;margin:0px;margin-left:4px;&quot;&gt;+onItemClick(user: User): void&lt;/p&gt;&lt;p style=&quot;margin:0px;margin-left:4px;&quot;&gt;+deleteUser(user: User): void&lt;/p&gt;" style="verticalAlign=top;align=left;overflow=fill;fontSize=12;fontFamily=Helvetica;html=1;" parent="WIyWlLk6GJQsqaUBKTNV-1" vertex="1">
          <mxGeometry x="60" y="926.5" width="250" height="207.5" as="geometry" />
        </mxCell>
        <mxCell id="fP5dS_6nymFe7e1dq4BX-13" value="" style="endArrow=none;html=1;rounded=0;entryX=0.5;entryY=0;entryDx=0;entryDy=0;exitX=0.5;exitY=1;exitDx=0;exitDy=0;endFill=0;startArrow=open;startFill=0;" parent="WIyWlLk6GJQsqaUBKTNV-1" source="fP5dS_6nymFe7e1dq4BX-3" target="fP5dS_6nymFe7e1dq4BX-5" edge="1">
          <mxGeometry width="50" height="50" relative="1" as="geometry">
            <mxPoint x="300" y="842.5" as="sourcePoint" />
            <mxPoint x="350" y="792.5" as="targetPoint" />
          </mxGeometry>
        </mxCell>
        <mxCell id="fP5dS_6nymFe7e1dq4BX-15" value="0..*" style="text;html=1;align=center;verticalAlign=middle;resizable=0;points=[];autosize=1;strokeColor=none;fillColor=none;" parent="WIyWlLk6GJQsqaUBKTNV-1" vertex="1">
          <mxGeometry x="180" y="847.5" width="40" height="30" as="geometry" />
        </mxCell>
        <mxCell id="fP5dS_6nymFe7e1dq4BX-26" value="" style="endArrow=classic;html=1;rounded=0;strokeColor=none;" parent="WIyWlLk6GJQsqaUBKTNV-1" edge="1">
          <mxGeometry width="50" height="50" relative="1" as="geometry">
            <mxPoint x="440" y="340" as="sourcePoint" />
            <mxPoint x="440" y="260" as="targetPoint" />
          </mxGeometry>
        </mxCell>
        <mxCell id="fP5dS_6nymFe7e1dq4BX-43" style="edgeStyle=orthogonalEdgeStyle;rounded=0;orthogonalLoop=1;jettySize=auto;html=1;entryX=1;entryY=0.5;entryDx=0;entryDy=0;strokeColor=#000000;endArrow=none;endFill=0;" parent="WIyWlLk6GJQsqaUBKTNV-1" source="fP5dS_6nymFe7e1dq4BX-32" target="fP5dS_6nymFe7e1dq4BX-5" edge="1">
          <mxGeometry relative="1" as="geometry" />
        </mxCell>
        <mxCell id="fP5dS_6nymFe7e1dq4BX-32" value="&lt;p style=&quot;margin:0px;margin-top:4px;text-align:center;&quot;&gt;&lt;b&gt;Menu&lt;/b&gt;&lt;/p&gt;&lt;hr size=&quot;1&quot;&gt;&lt;p style=&quot;margin:0px;margin-left:4px;&quot;&gt;-sharedPref: SharedPreferences&lt;/p&gt;&lt;hr size=&quot;1&quot;&gt;&lt;p style=&quot;margin:0px;margin-left:4px;&quot;&gt;+onBackPressed(): void&lt;/p&gt;&lt;p style=&quot;margin:0px;margin-left:4px;&quot;&gt;-createMenuButton(stringReference: int, activity: Class): Button&lt;/p&gt;&lt;p style=&quot;margin:0px;margin-left:4px;&quot;&gt;+logoutUser(): void&lt;/p&gt;" style="verticalAlign=top;align=left;overflow=fill;fontSize=12;fontFamily=Helvetica;html=1;" parent="WIyWlLk6GJQsqaUBKTNV-1" vertex="1">
          <mxGeometry x="470" y="620" width="350" height="110" as="geometry" />
        </mxCell>
        <mxCell id="fP5dS_6nymFe7e1dq4BX-44" value="redirect&lt;br&gt;to" style="text;html=1;align=center;verticalAlign=middle;resizable=0;points=[];autosize=1;strokeColor=none;fillColor=none;" parent="WIyWlLk6GJQsqaUBKTNV-1" vertex="1">
          <mxGeometry x="330" y="987.5" width="60" height="40" as="geometry" />
        </mxCell>
        <mxCell id="fP5dS_6nymFe7e1dq4BX-46" value="" style="triangle;whiteSpace=wrap;html=1;direction=west;fillColor=#000000;" parent="WIyWlLk6GJQsqaUBKTNV-1" vertex="1">
          <mxGeometry x="314" y="1002.5" width="10" height="10" as="geometry" />
        </mxCell>
        <mxCell id="fP5dS_6nymFe7e1dq4BX-57" style="edgeStyle=orthogonalEdgeStyle;rounded=0;orthogonalLoop=1;jettySize=auto;html=1;strokeColor=#000000;endArrow=none;endFill=0;" parent="WIyWlLk6GJQsqaUBKTNV-1" source="fP5dS_6nymFe7e1dq4BX-47" edge="1">
          <mxGeometry relative="1" as="geometry">
            <mxPoint x="625" y="20" as="targetPoint" />
          </mxGeometry>
        </mxCell>
        <mxCell id="fP5dS_6nymFe7e1dq4BX-47" value="&lt;p style=&quot;margin:0px;margin-top:4px;text-align:center;&quot;&gt;&lt;b&gt;CourseEditor&lt;/b&gt;&lt;/p&gt;&lt;hr size=&quot;1&quot;&gt;&lt;p style=&quot;margin:0px;margin-left:4px;&quot;&gt;~db: FirebaseFireStore&lt;/p&gt;&lt;p style=&quot;margin:0px;margin-left:4px;&quot;&gt;~coursesRef: CollectionReference&lt;/p&gt;&lt;p style=&quot;margin:0px;margin-left:4px;&quot;&gt;~enrollmentRef: CollectionReference&lt;/p&gt;&lt;p style=&quot;margin:0px;margin-left:4px;&quot;&gt;~scheduleRef: Collection Reference&lt;br&gt;&lt;/p&gt;&lt;p style=&quot;margin:0px;margin-left:4px;&quot;&gt;~intent: Intent&lt;/p&gt;&lt;p style=&quot;margin:0px;margin-left:4px;&quot;&gt;~course_id: String&lt;/p&gt;&lt;p style=&quot;margin:0px;margin-left:4px;&quot;&gt;~new_name: EditText&lt;/p&gt;&lt;p style=&quot;margin:0px;margin-left:4px;&quot;&gt;~new_code: EditText&lt;/p&gt;&lt;p style=&quot;margin:0px;margin-left:4px;&quot;&gt;~delete: Button&lt;/p&gt;&lt;p style=&quot;margin:0px;margin-left:4px;&quot;&gt;~edit: Button&lt;/p&gt;&lt;hr size=&quot;1&quot;&gt;&lt;p style=&quot;margin:0px;margin-left:4px;&quot;&gt;-deleteConfirm(): void&lt;/p&gt;&lt;p style=&quot;margin:0px;margin-left:4px;&quot;&gt;+removeCourse(doc_id: String): void&lt;/p&gt;&lt;p style=&quot;margin:0px;margin-left:4px;&quot;&gt;+updateCourse(doc_id: String, name: String, code:String): void&lt;/p&gt;" style="verticalAlign=top;align=left;overflow=fill;fontSize=12;fontFamily=Helvetica;html=1;" parent="WIyWlLk6GJQsqaUBKTNV-1" vertex="1">
          <mxGeometry x="450" y="-296" width="350" height="240" as="geometry" />
        </mxCell>
        <mxCell id="fP5dS_6nymFe7e1dq4BX-80" style="edgeStyle=orthogonalEdgeStyle;rounded=0;orthogonalLoop=1;jettySize=auto;html=1;entryX=0;entryY=0.571;entryDx=0;entryDy=0;entryPerimeter=0;strokeColor=#000000;endArrow=open;endFill=0;" parent="WIyWlLk6GJQsqaUBKTNV-1" source="fP5dS_6nymFe7e1dq4BX-49" target="fP5dS_6nymFe7e1dq4BX-2" edge="1">
          <mxGeometry relative="1" as="geometry" />
        </mxCell>
        <mxCell id="fP5dS_6nymFe7e1dq4BX-89" style="edgeStyle=orthogonalEdgeStyle;rounded=0;orthogonalLoop=1;jettySize=auto;html=1;entryX=-0.006;entryY=0.291;entryDx=0;entryDy=0;entryPerimeter=0;strokeColor=#000000;endArrow=none;endFill=0;startArrow=open;startFill=0;" parent="WIyWlLk6GJQsqaUBKTNV-1" source="fP5dS_6nymFe7e1dq4BX-49" target="fP5dS_6nymFe7e1dq4BX-4" edge="1">
          <mxGeometry relative="1" as="geometry" />
        </mxCell>
        <mxCell id="fP5dS_6nymFe7e1dq4BX-49" value="&lt;p style=&quot;margin:0px;margin-top:4px;text-align:center;&quot;&gt;&lt;b&gt;CourseAdapter&lt;/b&gt;&lt;/p&gt;&lt;hr size=&quot;1&quot;&gt;&lt;p style=&quot;margin:0px;margin-left:4px;&quot;&gt;~context:Context&lt;/p&gt;&lt;p style=&quot;margin:0px;margin-left:4px;&quot;&gt;~courses: ArrayList&amp;lt;Course&amp;gt;&lt;/p&gt;&lt;p style=&quot;margin:0px;margin-left:4px;&quot;&gt;~listener: onItemClickListener&lt;/p&gt;&lt;hr size=&quot;1&quot;&gt;&lt;p style=&quot;margin:0px;margin-left:4px;&quot;&gt;+onCreateViewHolder(parent: ViewGroup, viewType:int): CourseAdapter.CourseViewHolder&lt;/p&gt;&lt;p style=&quot;margin:0px;margin-left:4px;&quot;&gt;+onBindViewHolder(holder: CourseAdapter.CourseViewHolder, position: int): void&lt;/p&gt;&lt;p style=&quot;margin:0px;margin-left:4px;&quot;&gt;+filterList(filteredList: ArrayList&amp;lt;Course&amp;gt;) : void&lt;br&gt;&lt;/p&gt;" style="verticalAlign=top;align=left;overflow=fill;fontSize=12;fontFamily=Helvetica;html=1;" parent="WIyWlLk6GJQsqaUBKTNV-1" vertex="1">
          <mxGeometry x="-220" y="-90" width="500" height="140" as="geometry" />
        </mxCell>
        <mxCell id="fP5dS_6nymFe7e1dq4BX-83" style="edgeStyle=orthogonalEdgeStyle;rounded=0;orthogonalLoop=1;jettySize=auto;html=1;entryX=0;entryY=0.6;entryDx=0;entryDy=0;entryPerimeter=0;strokeColor=#000000;endArrow=open;endFill=0;" parent="WIyWlLk6GJQsqaUBKTNV-1" source="fP5dS_6nymFe7e1dq4BX-50" target="fP5dS_6nymFe7e1dq4BX-3" edge="1">
          <mxGeometry relative="1" as="geometry" />
        </mxCell>
        <mxCell id="fP5dS_6nymFe7e1dq4BX-50" value="&lt;p style=&quot;margin:0px;margin-top:4px;text-align:center;&quot;&gt;&lt;b&gt;UserAdapter&lt;/b&gt;&lt;/p&gt;&lt;hr size=&quot;1&quot;&gt;&lt;p style=&quot;margin:0px;margin-left:4px;&quot;&gt;~context:Context&lt;/p&gt;&lt;p style=&quot;margin:0px;margin-left:4px;&quot;&gt;~users: ArrayList&amp;lt;User&amp;gt;&lt;/p&gt;&lt;p style=&quot;margin:0px;margin-left:4px;&quot;&gt;~listener: onItemClickListener&lt;/p&gt;&lt;hr size=&quot;1&quot;&gt;&lt;p style=&quot;margin:0px;margin-left:4px;&quot;&gt;+onCreateViewHolder(parent: ViewGroup, viewType:int): UserViewHolder&lt;/p&gt;&lt;p style=&quot;margin:0px;margin-left:4px;&quot;&gt;+onBindViewHolder(holder: UserViewHolder, position: int): void&lt;/p&gt;" style="verticalAlign=top;align=left;overflow=fill;fontSize=12;fontFamily=Helvetica;html=1;" parent="WIyWlLk6GJQsqaUBKTNV-1" vertex="1">
          <mxGeometry x="-413" y="730" width="410" height="120" as="geometry" />
        </mxCell>
        <mxCell id="fP5dS_6nymFe7e1dq4BX-58" value="redirect&amp;nbsp;&lt;br&gt;to" style="text;html=1;align=center;verticalAlign=middle;resizable=0;points=[];autosize=1;strokeColor=none;fillColor=none;" parent="WIyWlLk6GJQsqaUBKTNV-1" vertex="1">
          <mxGeometry x="550" y="-30" width="70" height="40" as="geometry" />
        </mxCell>
        <mxCell id="fP5dS_6nymFe7e1dq4BX-60" value="" style="triangle;whiteSpace=wrap;html=1;direction=north;fillColor=#000000;" parent="WIyWlLk6GJQsqaUBKTNV-1" vertex="1">
          <mxGeometry x="580" y="-40" width="10" height="10" as="geometry" />
        </mxCell>
        <mxCell id="fP5dS_6nymFe7e1dq4BX-66" style="edgeStyle=orthogonalEdgeStyle;rounded=0;orthogonalLoop=1;jettySize=auto;html=1;entryX=0.469;entryY=1.026;entryDx=0;entryDy=0;entryPerimeter=0;strokeColor=#000000;endArrow=none;endFill=0;" parent="WIyWlLk6GJQsqaUBKTNV-1" source="fP5dS_6nymFe7e1dq4BX-65" target="fP5dS_6nymFe7e1dq4BX-32" edge="1">
          <mxGeometry relative="1" as="geometry" />
        </mxCell>
        <mxCell id="fP5dS_6nymFe7e1dq4BX-65" value="&lt;p style=&quot;margin:0px;margin-top:4px;text-align:center;&quot;&gt;&lt;b&gt;Login&lt;/b&gt;&lt;/p&gt;&lt;hr size=&quot;1&quot;&gt;&lt;p style=&quot;margin: 0px 0px 0px 4px;&quot;&gt;~db: FirebaseFireStore&lt;/p&gt;&lt;p style=&quot;margin: 0px 0px 0px 4px;&quot;&gt;~usersRef: CollectionReference&lt;/p&gt;&lt;p style=&quot;margin: 0px 0px 0px 4px;&quot;&gt;~register: Button&lt;/p&gt;&lt;p style=&quot;margin: 0px 0px 0px 4px;&quot;&gt;~login: Button&lt;/p&gt;&lt;p style=&quot;margin: 0px 0px 0px 4px;&quot;&gt;~username_field: EditText&lt;/p&gt;&lt;p style=&quot;margin: 0px 0px 0px 4px;&quot;&gt;~password_field: EditText&lt;/p&gt;&lt;p style=&quot;margin: 0px 0px 0px 4px;&quot;&gt;~role_field: Spinner&lt;/p&gt;&lt;hr size=&quot;1&quot;&gt;&lt;p style=&quot;margin:0px;margin-left:4px;&quot;&gt;+properCredentials(username: String, password: String): void&lt;br&gt;&lt;/p&gt;&lt;p style=&quot;margin:0px;margin-left:4px;&quot;&gt;+registerUser(): void&lt;/p&gt;&lt;p style=&quot;margin:0px;margin-left:4px;&quot;&gt;+loginUser(): void&lt;/p&gt;&lt;p style=&quot;margin:0px;margin-left:4px;&quot;&gt;-saveUser(id: String, username: String, role: String): void&lt;/p&gt;&lt;p style=&quot;margin:0px;margin-left:4px;&quot;&gt;&lt;br&gt;&lt;/p&gt;&lt;p style=&quot;margin:0px;margin-left:4px;&quot;&gt;&lt;br&gt;&lt;/p&gt;" style="verticalAlign=top;align=left;overflow=fill;fontSize=12;fontFamily=Helvetica;html=1;" parent="WIyWlLk6GJQsqaUBKTNV-1" vertex="1">
          <mxGeometry x="475" y="840" width="345" height="210" as="geometry" />
        </mxCell>
        <mxCell id="fP5dS_6nymFe7e1dq4BX-67" value="redirect&lt;br&gt;to" style="text;html=1;align=center;verticalAlign=middle;resizable=0;points=[];autosize=1;strokeColor=none;fillColor=none;" parent="WIyWlLk6GJQsqaUBKTNV-1" vertex="1">
          <mxGeometry x="640" y="770" width="60" height="40" as="geometry" />
        </mxCell>
        <mxCell id="fP5dS_6nymFe7e1dq4BX-69" value="" style="triangle;whiteSpace=wrap;html=1;direction=north;fillColor=#000000;" parent="WIyWlLk6GJQsqaUBKTNV-1" vertex="1">
          <mxGeometry x="665" y="760" width="10" height="10" as="geometry" />
        </mxCell>
        <mxCell id="fP5dS_6nymFe7e1dq4BX-74" value="redirect&lt;br&gt;to" style="text;html=1;align=center;verticalAlign=middle;resizable=0;points=[];autosize=1;strokeColor=none;fillColor=none;" parent="WIyWlLk6GJQsqaUBKTNV-1" vertex="1">
          <mxGeometry x="650" y="398.5" width="60" height="40" as="geometry" />
        </mxCell>
        <mxCell id="fP5dS_6nymFe7e1dq4BX-75" value="" style="triangle;whiteSpace=wrap;html=1;direction=north;fillColor=#000000;" parent="WIyWlLk6GJQsqaUBKTNV-1" vertex="1">
          <mxGeometry x="675" y="381" width="10" height="10" as="geometry" />
        </mxCell>
        <mxCell id="fP5dS_6nymFe7e1dq4BX-76" value="create" style="text;html=1;align=center;verticalAlign=middle;resizable=0;points=[];autosize=1;strokeColor=none;fillColor=none;" parent="WIyWlLk6GJQsqaUBKTNV-1" vertex="1">
          <mxGeometry x="410" y="160" width="60" height="30" as="geometry" />
        </mxCell>
        <mxCell id="fP5dS_6nymFe7e1dq4BX-78" value="create" style="text;html=1;align=center;verticalAlign=middle;resizable=0;points=[];autosize=1;strokeColor=none;fillColor=none;" parent="WIyWlLk6GJQsqaUBKTNV-1" vertex="1">
          <mxGeometry x="180" y="887.5" width="60" height="30" as="geometry" />
        </mxCell>
        <mxCell id="fP5dS_6nymFe7e1dq4BX-79" value="" style="endArrow=none;html=1;rounded=0;strokeColor=#000000;exitX=0.479;exitY=0;exitDx=0;exitDy=0;exitPerimeter=0;entryX=0.32;entryY=0.997;entryDx=0;entryDy=0;entryPerimeter=0;" parent="WIyWlLk6GJQsqaUBKTNV-1" source="fP5dS_6nymFe7e1dq4BX-32" target="fP5dS_6nymFe7e1dq4BX-4" edge="1">
          <mxGeometry width="50" height="50" relative="1" as="geometry">
            <mxPoint x="450" y="450" as="sourcePoint" />
            <mxPoint x="638" y="360" as="targetPoint" />
          </mxGeometry>
        </mxCell>
        <mxCell id="fP5dS_6nymFe7e1dq4BX-84" value="0..*" style="text;html=1;align=center;verticalAlign=middle;resizable=0;points=[];autosize=1;strokeColor=none;fillColor=none;" parent="WIyWlLk6GJQsqaUBKTNV-1" vertex="1">
          <mxGeometry x="140" y="205" width="40" height="30" as="geometry" />
        </mxCell>
        <mxCell id="fP5dS_6nymFe7e1dq4BX-85" value="0..*" style="text;html=1;align=center;verticalAlign=middle;resizable=0;points=[];autosize=1;strokeColor=none;fillColor=none;" parent="WIyWlLk6GJQsqaUBKTNV-1" vertex="1">
          <mxGeometry x="40" y="762.5" width="40" height="30" as="geometry" />
        </mxCell>
        <mxCell id="fP5dS_6nymFe7e1dq4BX-87" value="contains&lt;br&gt;" style="text;html=1;align=center;verticalAlign=middle;resizable=0;points=[];autosize=1;strokeColor=none;fillColor=none;" parent="WIyWlLk6GJQsqaUBKTNV-1" vertex="1">
          <mxGeometry x="30" y="205" width="70" height="30" as="geometry" />
        </mxCell>
        <mxCell id="fP5dS_6nymFe7e1dq4BX-88" value="contains&lt;br&gt;" style="text;html=1;align=center;verticalAlign=middle;resizable=0;points=[];autosize=1;strokeColor=none;fillColor=none;" parent="WIyWlLk6GJQsqaUBKTNV-1" vertex="1">
          <mxGeometry x="-10" y="750" width="70" height="30" as="geometry" />
        </mxCell>
        <mxCell id="fP5dS_6nymFe7e1dq4BX-90" value="1" style="text;html=1;align=center;verticalAlign=middle;resizable=0;points=[];autosize=1;strokeColor=none;fillColor=none;" parent="WIyWlLk6GJQsqaUBKTNV-1" vertex="1">
          <mxGeometry x="275" y="-50" width="30" height="30" as="geometry" />
        </mxCell>
        <mxCell id="fP5dS_6nymFe7e1dq4BX-91" value="contains&lt;br&gt;" style="text;html=1;align=center;verticalAlign=middle;resizable=0;points=[];autosize=1;strokeColor=none;fillColor=none;" parent="WIyWlLk6GJQsqaUBKTNV-1" vertex="1">
          <mxGeometry x="420" y="70" width="70" height="30" as="geometry" />
        </mxCell>
        <mxCell id="fP5dS_6nymFe7e1dq4BX-93" value="" style="triangle;whiteSpace=wrap;html=1;direction=west;fillColor=#000000;" parent="WIyWlLk6GJQsqaUBKTNV-1" vertex="1">
          <mxGeometry x="409" y="80" width="10" height="10" as="geometry" />
        </mxCell>
        <mxCell id="fP5dS_6nymFe7e1dq4BX-94" value="" style="triangle;whiteSpace=wrap;html=1;direction=east;fillColor=#000000;" parent="WIyWlLk6GJQsqaUBKTNV-1" vertex="1">
          <mxGeometry x="90" y="215" width="10" height="10" as="geometry" />
        </mxCell>
        <mxCell id="fP5dS_6nymFe7e1dq4BX-95" value="" style="triangle;whiteSpace=wrap;html=1;direction=east;fillColor=#000000;" parent="WIyWlLk6GJQsqaUBKTNV-1" vertex="1">
          <mxGeometry x="55" y="760" width="10" height="10" as="geometry" />
        </mxCell>
        <mxCell id="fP5dS_6nymFe7e1dq4BX-98" value="contains&lt;br&gt;" style="text;html=1;align=center;verticalAlign=middle;resizable=0;points=[];autosize=1;strokeColor=none;fillColor=none;" parent="WIyWlLk6GJQsqaUBKTNV-1" vertex="1">
          <mxGeometry x="-110" y="997.5" width="70" height="30" as="geometry" />
        </mxCell>
        <mxCell id="fP5dS_6nymFe7e1dq4BX-99" value="" style="triangle;whiteSpace=wrap;html=1;direction=west;fillColor=#000000;" parent="WIyWlLk6GJQsqaUBKTNV-1" vertex="1">
          <mxGeometry x="-120" y="1007.5" width="10" height="10" as="geometry" />
        </mxCell>
        <mxCell id="fP5dS_6nymFe7e1dq4BX-100" value="1" style="text;html=1;align=center;verticalAlign=middle;resizable=0;points=[];autosize=1;strokeColor=none;fillColor=none;" parent="WIyWlLk6GJQsqaUBKTNV-1" vertex="1">
          <mxGeometry x="-215" y="847.5" width="30" height="30" as="geometry" />
        </mxCell>
        <mxCell id="FUKCDuMdCEa6yZgynZya-0" value="&lt;p style=&quot;margin:0px;margin-top:4px;text-align:center;&quot;&gt;&lt;b&gt;CourseEditorInstructor&lt;/b&gt;&lt;/p&gt;&lt;hr size=&quot;1&quot;&gt;&lt;p style=&quot;margin:0px;margin-left:4px;&quot;&gt;~db: FirebaseFireStore&lt;/p&gt;&lt;p style=&quot;margin:0px;margin-left:4px;&quot;&gt;~scheduleRef: CollectionReference&lt;/p&gt;&lt;p style=&quot;margin:0px;margin-left:4px;&quot;&gt;~coursesRef: CollectionReference&lt;/p&gt;&lt;p style=&quot;margin:0px;margin-left:4px;&quot;&gt;~intent: Intent&lt;/p&gt;&lt;p style=&quot;margin:0px;margin-left:4px;&quot;&gt;~course_id: String&lt;/p&gt;&lt;p style=&quot;margin:0px;margin-left:4px;&quot;&gt;~course_description: String&lt;br&gt;&lt;/p&gt;&lt;p style=&quot;margin:0px;margin-left:4px;&quot;&gt;~course_capacity: int&lt;/p&gt;&lt;p style=&quot;margin:0px;margin-left:4px;&quot;&gt;~recyclerView: RecyclerView&lt;/p&gt;&lt;p style=&quot;margin:0px;margin-left:4px;&quot;&gt;~description: EditText&lt;/p&gt;&lt;p style=&quot;margin:0px;margin-left:4px;&quot;&gt;~capacity: EditText&lt;/p&gt;&lt;p style=&quot;margin:0px;margin-left:4px;&quot;&gt;~unassign: Button&lt;/p&gt;&lt;p style=&quot;margin:0px;margin-left:4px;&quot;&gt;~edit: Button&lt;/p&gt;&lt;p style=&quot;margin:0px;margin-left:4px;&quot;&gt;~view_students: Button&lt;br&gt;&lt;/p&gt;&lt;p style=&quot;margin:0px;margin-left:4px;&quot;&gt;~schedule: ArrayList&amp;lt;ScheduleItem&amp;gt;&lt;br&gt;&lt;/p&gt;&lt;hr size=&quot;1&quot;&gt;&lt;p style=&quot;margin:0px;margin-left:4px;&quot;&gt;-fetchSchedule(): void&lt;/p&gt;&lt;p style=&quot;margin:0px;margin-left:4px;&quot;&gt;-deleteltem(doc_id: String): void&lt;/p&gt;&lt;p style=&quot;margin:0px;margin-left:4px;&quot;&gt;-clearFields(): void&lt;br&gt;&lt;/p&gt;&lt;p style=&quot;margin:0px;margin-left:4px;&quot;&gt;#onStart: void&lt;/p&gt;&lt;p style=&quot;margin:0px;margin-left:4px;&quot;&gt;+unassignConfirm(): void&lt;/p&gt;&lt;p style=&quot;margin:0px;margin-left:4px;&quot;&gt;+unassign(doc_id: String): void&amp;nbsp;&lt;/p&gt;&lt;p style=&quot;margin:0px;margin-left:4px;&quot;&gt;+addEvent(): void&lt;/p&gt;&lt;p style=&quot;margin:0px;margin-left:4px;&quot;&gt;+onitemClick(item: Scheduleltem): void&lt;/p&gt;&lt;p style=&quot;margin:0px;margin-left:4px;&quot;&gt;+updateCourse(doc_id: String, description: String, capacity int): void&amp;nbsp;&lt;/p&gt;&lt;p style=&quot;margin:0px;margin-left:4px;&quot;&gt;+areCourseFieldsValid(context. Context, capacity: int): boolean&amp;nbsp;&lt;/p&gt;&lt;p style=&quot;margin:0px;margin-left:4px;&quot;&gt;+areFieldsValid(context: Context, start_time String, end_time: String): boolean&lt;/p&gt;" style="verticalAlign=top;align=left;overflow=fill;fontSize=12;fontFamily=Helvetica;html=1;" parent="WIyWlLk6GJQsqaUBKTNV-1" vertex="1">
          <mxGeometry x="1079" y="-100" width="430" height="407" as="geometry" />
        </mxCell>
        <mxCell id="FUKCDuMdCEa6yZgynZya-1" value="&lt;p style=&quot;margin:0px;margin-top:4px;text-align:center;&quot;&gt;&lt;b&gt;ScheduleItemAdapter&lt;/b&gt;&lt;/p&gt;&lt;hr size=&quot;1&quot;&gt;&lt;p style=&quot;margin:0px;margin-left:4px;&quot;&gt;~context:Context&lt;/p&gt;&lt;p style=&quot;margin:0px;margin-left:4px;&quot;&gt;~schedule: ArrayList&amp;lt;&lt;span style=&quot;background-color: initial;&quot;&gt;ScheduleItem&lt;/span&gt;&lt;span style=&quot;background-color: initial;&quot;&gt;&amp;gt;&lt;/span&gt;&lt;/p&gt;&lt;p style=&quot;margin:0px;margin-left:4px;&quot;&gt;&lt;span style=&quot;background-color: initial;&quot;&gt;~days: String[]&lt;/span&gt;&lt;/p&gt;&lt;p style=&quot;margin:0px;margin-left:4px;&quot;&gt;~listener: onItemClickListener&lt;/p&gt;&lt;hr size=&quot;1&quot;&gt;&lt;p style=&quot;margin:0px;margin-left:4px;&quot;&gt;+onCreateViewHolder(parent: ViewGroup, viewType:int): ItemViewHolder&lt;/p&gt;&lt;p style=&quot;margin:0px;margin-left:4px;&quot;&gt;+onBindViewHolder(holder: UserViewHolder, position: int): void&lt;/p&gt;" style="verticalAlign=top;align=left;overflow=fill;fontSize=12;fontFamily=Helvetica;html=1;" parent="WIyWlLk6GJQsqaUBKTNV-1" vertex="1">
          <mxGeometry x="869" y="360" width="410" height="145" as="geometry" />
        </mxCell>
        <mxCell id="FUKCDuMdCEa6yZgynZya-2" value="&lt;p style=&quot;margin:0px;margin-top:4px;text-align:center;&quot;&gt;&lt;b&gt;ScheduleItem&lt;/b&gt;&lt;/p&gt;&lt;hr size=&quot;1&quot;&gt;&lt;p style=&quot;margin:0px;margin-left:4px;&quot;&gt;~course_id: String&lt;/p&gt;&lt;p style=&quot;margin:0px;margin-left:4px;&quot;&gt;&lt;span style=&quot;background-color: initial;&quot;&gt;~start_time: String&lt;/span&gt;&lt;/p&gt;&lt;p style=&quot;margin:0px;margin-left:4px;&quot;&gt;&lt;span style=&quot;background-color: initial;&quot;&gt;~end_time: String&amp;nbsp;&lt;/span&gt;&lt;/p&gt;&lt;p style=&quot;margin:0px;margin-left:4px;&quot;&gt;&lt;span style=&quot;background-color: initial;&quot;&gt;~day: int&lt;/span&gt;&lt;/p&gt;&lt;hr size=&quot;1&quot;&gt;&lt;p style=&quot;margin:0px;margin-left:4px;&quot;&gt;+getId(): String&lt;/p&gt;&lt;p style=&quot;margin:0px;margin-left:4px;&quot;&gt;+getStartTime(): String&lt;/p&gt;&lt;p style=&quot;margin:0px;margin-left:4px;&quot;&gt;+getEndTime(): String&lt;br&gt;&lt;/p&gt;&lt;p style=&quot;margin:0px;margin-left:4px;&quot;&gt;+getDay(): int&lt;/p&gt;&lt;p style=&quot;margin:0px;margin-left:4px;&quot;&gt;&lt;br&gt;&lt;/p&gt;&lt;p style=&quot;margin:0px;margin-left:4px;&quot;&gt;&lt;br&gt;&lt;/p&gt;" style="verticalAlign=top;align=left;overflow=fill;fontSize=12;fontFamily=Helvetica;html=1;" parent="WIyWlLk6GJQsqaUBKTNV-1" vertex="1">
          <mxGeometry x="1370" y="352.5" width="210" height="170" as="geometry" />
        </mxCell>
        <mxCell id="FUKCDuMdCEa6yZgynZya-3" value="&lt;p style=&quot;margin:0px;margin-top:4px;text-align:center;&quot;&gt;&lt;b&gt;StudentViewer&lt;/b&gt;&lt;/p&gt;&lt;hr size=&quot;1&quot;&gt;&lt;p style=&quot;margin:0px;margin-left:4px;&quot;&gt;~db: FirebaseFireStore&lt;/p&gt;&lt;p style=&quot;margin:0px;margin-left:4px;&quot;&gt;~enrollmentRef: CollectionReference&lt;/p&gt;&lt;p style=&quot;margin: 0px 0px 0px 4px;&quot;&gt;~intent: Intent&lt;/p&gt;&lt;p style=&quot;margin: 0px 0px 0px 4px;&quot;&gt;~textView: TextView&lt;/p&gt;&lt;p style=&quot;margin:0px;margin-left:4px;&quot;&gt;~recyclerView: RecyclerView&lt;/p&gt;&lt;p style=&quot;margin:0px;margin-left:4px;&quot;&gt;~studentAdapter: StudentAdapter&lt;/p&gt;&lt;p style=&quot;margin:0px;margin-left:4px;&quot;&gt;~students: ArrayList&amp;lt;String&amp;gt;&lt;/p&gt;&lt;hr size=&quot;1&quot;&gt;&lt;p style=&quot;margin:0px;margin-left:4px;&quot;&gt;#getStudents(): void&lt;/p&gt;" style="verticalAlign=top;align=left;overflow=fill;fontSize=12;fontFamily=Helvetica;html=1;" parent="WIyWlLk6GJQsqaUBKTNV-1" vertex="1">
          <mxGeometry x="890" y="-290" width="250" height="170" as="geometry" />
        </mxCell>
        <mxCell id="FUKCDuMdCEa6yZgynZya-4" value="&lt;p style=&quot;margin:0px;margin-top:4px;text-align:center;&quot;&gt;&lt;b&gt;StudentAdapter&lt;/b&gt;&lt;/p&gt;&lt;hr size=&quot;1&quot;&gt;&lt;p style=&quot;margin:0px;margin-left:4px;&quot;&gt;~context:Context&lt;/p&gt;&lt;p style=&quot;margin:0px;margin-left:4px;&quot;&gt;~students: ArrayList&amp;lt;&lt;span style=&quot;background-color: initial;&quot;&gt;String&lt;/span&gt;&lt;span style=&quot;background-color: initial;&quot;&gt;&amp;gt;&lt;/span&gt;&lt;/p&gt;&lt;hr size=&quot;1&quot;&gt;&lt;p style=&quot;margin:0px;margin-left:4px;&quot;&gt;+onCreateViewHolder(parent: ViewGroup, viewType:int): UserViewHolder&lt;/p&gt;&lt;p style=&quot;margin:0px;margin-left:4px;&quot;&gt;+onBindViewHolder(holder: UserViewHolder, position: int): void&lt;/p&gt;" style="verticalAlign=top;align=left;overflow=fill;fontSize=12;fontFamily=Helvetica;html=1;" parent="WIyWlLk6GJQsqaUBKTNV-1" vertex="1">
          <mxGeometry x="1230" y="-290" width="410" height="110" as="geometry" />
        </mxCell>
        <mxCell id="FUKCDuMdCEa6yZgynZya-5" value="&lt;p style=&quot;margin:0px;margin-top:4px;text-align:center;&quot;&gt;&lt;b&gt;CourseViewer&lt;/b&gt;&lt;/p&gt;&lt;hr size=&quot;1&quot;&gt;&lt;p style=&quot;margin:0px;margin-left:4px;&quot;&gt;~db: FirebaseFireStore&lt;/p&gt;&lt;p style=&quot;margin:0px;margin-left:4px;&quot;&gt;~courseRef: CollectionReference&lt;/p&gt;&lt;p style=&quot;margin:0px;margin-left:4px;&quot;&gt;~enrollmentRef: CollectionReference&lt;br&gt;&lt;/p&gt;&lt;p style=&quot;margin:0px;margin-left:4px;&quot;&gt;~scheduleRef: CollectionReference&lt;br&gt;&lt;/p&gt;&lt;p style=&quot;margin:0px;margin-left:4px;&quot;&gt;~sharedPref: SharedPreferences&lt;/p&gt;&lt;p style=&quot;margin: 0px 0px 0px 4px;&quot;&gt;~recyclerView: RecyclerView&lt;/p&gt;&lt;p style=&quot;margin: 0px 0px 0px 4px;&quot;&gt;~courseAdapter: CourseAdapter&lt;/p&gt;&lt;p style=&quot;margin: 0px 0px 0px 4px;&quot;&gt;~courses: ArrayList&amp;lt;Course&amp;gt;&lt;/p&gt;&lt;p style=&quot;margin:0px;margin-left:4px;&quot;&gt;~day_picker: Spinner&lt;/p&gt;&lt;p style=&quot;margin:0px;margin-left:4px;&quot;&gt;~inputName: EditText&lt;/p&gt;&lt;p style=&quot;margin:0px;margin-left:4px;&quot;&gt;~inputCode: EditText&lt;/p&gt;&lt;p style=&quot;margin:0px;margin-left:4px;&quot;&gt;~viewToggle: ToggleButton&lt;/p&gt;&lt;p style=&quot;margin:0px;margin-left:4px;&quot;&gt;~search: Button&lt;/p&gt;&lt;hr size=&quot;1&quot;&gt;&lt;p style=&quot;margin:0px;margin-left:4px;&quot;&gt;-searchCourse(name: String, code: String, day: int, enrolledOnly: Boolean): void&lt;/p&gt;&lt;p style=&quot;margin:0px;margin-left:4px;&quot;&gt;-searchHelper(filteredCourses: ArrayList&amp;lt;Course&amp;gt;, name: String, code: String): void&lt;/p&gt;&lt;p style=&quot;margin:0px;margin-left:4px;&quot;&gt;-fetchCourses(): void&lt;/p&gt;&lt;p style=&quot;margin:0px;margin-left:4px;&quot;&gt;+getDayInt(day: String): int&lt;/p&gt;&lt;p style=&quot;margin:0px;margin-left:4px;&quot;&gt;#onStart(): void&lt;/p&gt;&lt;p style=&quot;margin:0px;margin-left:4px;&quot;&gt;+onitemClick(course: Course): void&lt;/p&gt;" style="verticalAlign=top;align=left;overflow=fill;fontSize=12;fontFamily=Helvetica;html=1;" parent="WIyWlLk6GJQsqaUBKTNV-1" vertex="1">
          <mxGeometry x="-100" y="352.5" width="470" height="325" as="geometry" />
        </mxCell>
        <mxCell id="FUKCDuMdCEa6yZgynZya-6" value="" style="endArrow=classic;html=1;rounded=0;entryX=0.204;entryY=1.028;entryDx=0;entryDy=0;entryPerimeter=0;" parent="WIyWlLk6GJQsqaUBKTNV-1" target="fP5dS_6nymFe7e1dq4BX-49" edge="1">
          <mxGeometry width="50" height="50" relative="1" as="geometry">
            <mxPoint x="-40" y="350" as="sourcePoint" />
            <mxPoint x="220" y="380" as="targetPoint" />
            <Array as="points">
              <mxPoint x="-40" y="170" />
              <mxPoint x="-120" y="170" />
            </Array>
          </mxGeometry>
        </mxCell>
        <mxCell id="FUKCDuMdCEa6yZgynZya-8" value="contains&lt;br&gt;" style="text;html=1;align=center;verticalAlign=middle;resizable=0;points=[];autosize=1;strokeColor=none;fillColor=none;" parent="WIyWlLk6GJQsqaUBKTNV-1" vertex="1">
          <mxGeometry x="-130" y="100" width="70" height="30" as="geometry" />
        </mxCell>
        <mxCell id="FUKCDuMdCEa6yZgynZya-10" value="" style="triangle;whiteSpace=wrap;html=1;direction=north;fillColor=#000000;" parent="WIyWlLk6GJQsqaUBKTNV-1" vertex="1">
          <mxGeometry x="-100" y="90" width="10" height="10" as="geometry" />
        </mxCell>
        <mxCell id="FUKCDuMdCEa6yZgynZya-11" value="" style="endArrow=none;html=1;rounded=0;entryX=1.005;entryY=0.855;entryDx=0;entryDy=0;entryPerimeter=0;exitX=-0.008;exitY=0.102;exitDx=0;exitDy=0;exitPerimeter=0;" parent="WIyWlLk6GJQsqaUBKTNV-1" source="fP5dS_6nymFe7e1dq4BX-32" target="FUKCDuMdCEa6yZgynZya-5" edge="1">
          <mxGeometry width="50" height="50" relative="1" as="geometry">
            <mxPoint x="170" y="790" as="sourcePoint" />
            <mxPoint x="220" y="740" as="targetPoint" />
          </mxGeometry>
        </mxCell>
        <mxCell id="FUKCDuMdCEa6yZgynZya-12" value="redirect&lt;br&gt;to" style="text;html=1;align=center;verticalAlign=middle;resizable=0;points=[];autosize=1;strokeColor=none;fillColor=none;" parent="WIyWlLk6GJQsqaUBKTNV-1" vertex="1">
          <mxGeometry x="400" y="595" width="60" height="40" as="geometry" />
        </mxCell>
        <mxCell id="FUKCDuMdCEa6yZgynZya-13" value="" style="triangle;whiteSpace=wrap;html=1;direction=west;fillColor=#000000;" parent="WIyWlLk6GJQsqaUBKTNV-1" vertex="1">
          <mxGeometry x="390" y="610" width="10" height="10" as="geometry" />
        </mxCell>
        <mxCell id="FUKCDuMdCEa6yZgynZya-14" value="&lt;p style=&quot;margin:0px;margin-top:4px;text-align:center;&quot;&gt;&lt;b&gt;CourseDetails&lt;/b&gt;&lt;/p&gt;&lt;hr size=&quot;1&quot;&gt;&lt;p style=&quot;margin:0px;margin-left:4px;&quot;&gt;~db: FirebaseFireStore&lt;/p&gt;&lt;p style=&quot;margin:0px;margin-left:4px;&quot;&gt;~courseRef: CollectionReference&lt;/p&gt;&lt;p style=&quot;margin:0px;margin-left:4px;&quot;&gt;~enrollmentRef: CollectionReference&lt;br&gt;&lt;/p&gt;&lt;p style=&quot;margin:0px;margin-left:4px;&quot;&gt;~scheduleRef: CollectionReference&lt;br&gt;&lt;/p&gt;&lt;p style=&quot;margin:0px;margin-left:4px;&quot;&gt;~sharedPref: SharedPreferences&lt;/p&gt;&lt;p style=&quot;margin:0px;margin-left:4px;&quot;&gt;~enrollementDoc: DocumentReference&lt;/p&gt;&lt;p style=&quot;margin:0px;margin-left:4px;&quot;&gt;~intent: Intent&lt;/p&gt;&lt;p style=&quot;margin: 0px 0px 0px 4px;&quot;&gt;~recyclerView: RecyclerView&lt;/p&gt;&lt;p style=&quot;margin: 0px 0px 0px 4px;&quot;&gt;~itemAdapter: ScheduleItemAdapter&lt;/p&gt;&lt;p style=&quot;margin: 0px 0px 0px 4px;&quot;&gt;~schedule: ArrayList&amp;lt;ScheduleItem&amp;gt;&lt;/p&gt;&lt;p style=&quot;margin: 0px 0px 0px 4px;&quot;&gt;~isEnrolled: Boolean&lt;/p&gt;&lt;p style=&quot;margin: 0px 0px 0px 4px;&quot;&gt;~courseName: TextView&lt;br&gt;&lt;/p&gt;&lt;p style=&quot;margin:0px;margin-left:4px;&quot;&gt;~courseDescription: TextView&lt;/p&gt;&lt;p style=&quot;margin:0px;margin-left:4px;&quot;&gt;~courseCapacity: TextView&lt;br&gt;&lt;/p&gt;&amp;nbsp;~courseInstructor: TextView&lt;p style=&quot;margin:0px;margin-left:4px;&quot;&gt;~enrollToggle: Button&lt;/p&gt;&lt;hr size=&quot;1&quot;&gt;&lt;p style=&quot;margin:0px;margin-left:4px;&quot;&gt;-getCourseData(): void&lt;/p&gt;&lt;p style=&quot;margin:0px;margin-left:4px;&quot;&gt;-checkEnrollment(): void&lt;/p&gt;&lt;p style=&quot;margin:0px;margin-left:4px;&quot;&gt;+enroll(): void&lt;/p&gt;&amp;nbsp;+unenroll(): void&lt;br&gt;&amp;nbsp;+fetchSchedule(): void&lt;br&gt;&amp;nbsp;+onItemClick(item: ScheduleItem): void&lt;br&gt;&lt;p style=&quot;margin:0px;margin-left:4px;&quot;&gt;&lt;br&gt;&lt;/p&gt;" style="verticalAlign=top;align=left;overflow=fill;fontSize=12;fontFamily=Helvetica;html=1;" parent="WIyWlLk6GJQsqaUBKTNV-1" vertex="1">
          <mxGeometry x="-685" y="320" width="470" height="367.5" as="geometry" />
        </mxCell>
        <mxCell id="FUKCDuMdCEa6yZgynZya-15" value="" style="endArrow=none;html=1;rounded=0;entryX=0.002;entryY=0.591;entryDx=0;entryDy=0;entryPerimeter=0;exitX=1.007;exitY=0.461;exitDx=0;exitDy=0;exitPerimeter=0;" parent="WIyWlLk6GJQsqaUBKTNV-1" source="fP5dS_6nymFe7e1dq4BX-4" target="FUKCDuMdCEa6yZgynZya-0" edge="1">
          <mxGeometry width="50" height="50" relative="1" as="geometry">
            <mxPoint x="740" y="160" as="sourcePoint" />
            <mxPoint x="790" y="110" as="targetPoint" />
          </mxGeometry>
        </mxCell>
        <mxCell id="FUKCDuMdCEa6yZgynZya-16" value="redirect&lt;br&gt;to" style="text;html=1;align=center;verticalAlign=middle;resizable=0;points=[];autosize=1;strokeColor=none;fillColor=none;" parent="WIyWlLk6GJQsqaUBKTNV-1" vertex="1">
          <mxGeometry x="960" y="105" width="60" height="40" as="geometry" />
        </mxCell>
        <mxCell id="FUKCDuMdCEa6yZgynZya-17" value="" style="triangle;whiteSpace=wrap;html=1;direction=east;fillColor=#000000;" parent="WIyWlLk6GJQsqaUBKTNV-1" vertex="1">
          <mxGeometry x="1020" y="120" width="10" height="10" as="geometry" />
        </mxCell>
        <mxCell id="FUKCDuMdCEa6yZgynZya-19" value="" style="endArrow=classic;html=1;rounded=0;exitX=0.157;exitY=1.003;exitDx=0;exitDy=0;exitPerimeter=0;entryX=0.677;entryY=-0.016;entryDx=0;entryDy=0;entryPerimeter=0;" parent="WIyWlLk6GJQsqaUBKTNV-1" source="FUKCDuMdCEa6yZgynZya-0" target="FUKCDuMdCEa6yZgynZya-1" edge="1">
          <mxGeometry width="50" height="50" relative="1" as="geometry">
            <mxPoint x="740" y="410" as="sourcePoint" />
            <mxPoint x="790" y="360" as="targetPoint" />
          </mxGeometry>
        </mxCell>
        <mxCell id="FUKCDuMdCEa6yZgynZya-20" value="" style="endArrow=classic;html=1;rounded=0;exitX=1;exitY=0.5;exitDx=0;exitDy=0;entryX=-0.003;entryY=0.467;entryDx=0;entryDy=0;entryPerimeter=0;" parent="WIyWlLk6GJQsqaUBKTNV-1" source="FUKCDuMdCEa6yZgynZya-1" target="FUKCDuMdCEa6yZgynZya-2" edge="1">
          <mxGeometry width="50" height="50" relative="1" as="geometry">
            <mxPoint x="740" y="410" as="sourcePoint" />
            <mxPoint x="790" y="360" as="targetPoint" />
          </mxGeometry>
        </mxCell>
        <mxCell id="FUKCDuMdCEa6yZgynZya-22" value="" style="endArrow=classic;html=1;rounded=0;exitX=0.876;exitY=1.008;exitDx=0;exitDy=0;exitPerimeter=0;" parent="WIyWlLk6GJQsqaUBKTNV-1" source="FUKCDuMdCEa6yZgynZya-0" edge="1">
          <mxGeometry width="50" height="50" relative="1" as="geometry">
            <mxPoint x="740" y="410" as="sourcePoint" />
            <mxPoint x="1457" y="350" as="targetPoint" />
          </mxGeometry>
        </mxCell>
        <mxCell id="FUKCDuMdCEa6yZgynZya-24" value="0..*" style="resizable=0;align=left;verticalAlign=bottom;labelBackgroundColor=none;fontSize=12;" parent="WIyWlLk6GJQsqaUBKTNV-1" connectable="0" vertex="1">
          <mxGeometry x="1459.9966666666664" y="350.00333333333344" as="geometry" />
        </mxCell>
        <mxCell id="FUKCDuMdCEa6yZgynZya-25" value="contains&lt;br&gt;" style="text;html=1;align=center;verticalAlign=middle;resizable=0;points=[];autosize=1;strokeColor=none;fillColor=none;" parent="WIyWlLk6GJQsqaUBKTNV-1" vertex="1">
          <mxGeometry x="1140" y="300" width="70" height="30" as="geometry" />
        </mxCell>
        <mxCell id="FUKCDuMdCEa6yZgynZya-26" value="1" style="text;html=1;align=center;verticalAlign=middle;resizable=0;points=[];autosize=1;strokeColor=none;fillColor=none;" parent="WIyWlLk6GJQsqaUBKTNV-1" vertex="1">
          <mxGeometry x="-120" y="40" width="30" height="30" as="geometry" />
        </mxCell>
        <mxCell id="FUKCDuMdCEa6yZgynZya-27" value="1" style="text;html=1;align=center;verticalAlign=middle;resizable=0;points=[];autosize=1;strokeColor=none;fillColor=none;" parent="WIyWlLk6GJQsqaUBKTNV-1" vertex="1">
          <mxGeometry x="1150" y="335" width="30" height="30" as="geometry" />
        </mxCell>
        <mxCell id="FUKCDuMdCEa6yZgynZya-28" value="contains&lt;br&gt;" style="text;html=1;align=center;verticalAlign=middle;resizable=0;points=[];autosize=1;strokeColor=none;fillColor=none;" parent="WIyWlLk6GJQsqaUBKTNV-1" vertex="1">
          <mxGeometry x="1270" y="400" width="70" height="30" as="geometry" />
        </mxCell>
        <mxCell id="FUKCDuMdCEa6yZgynZya-30" value="0..*" style="resizable=0;align=left;verticalAlign=bottom;labelBackgroundColor=none;fontSize=12;" parent="WIyWlLk6GJQsqaUBKTNV-1" connectable="0" vertex="1">
          <mxGeometry x="1349.9966666666664" y="420.00333333333344" as="geometry" />
        </mxCell>
        <mxCell id="FUKCDuMdCEa6yZgynZya-31" value="" style="triangle;whiteSpace=wrap;html=1;direction=east;fillColor=#000000;" parent="WIyWlLk6GJQsqaUBKTNV-1" vertex="1">
          <mxGeometry x="1330" y="410" width="10" height="10" as="geometry" />
        </mxCell>
        <mxCell id="FUKCDuMdCEa6yZgynZya-32" value="" style="endArrow=none;html=1;rounded=0;entryX=0.807;entryY=1.011;entryDx=0;entryDy=0;entryPerimeter=0;exitX=0.031;exitY=-0.004;exitDx=0;exitDy=0;exitPerimeter=0;" parent="WIyWlLk6GJQsqaUBKTNV-1" source="FUKCDuMdCEa6yZgynZya-0" target="FUKCDuMdCEa6yZgynZya-3" edge="1">
          <mxGeometry width="50" height="50" relative="1" as="geometry">
            <mxPoint x="740" y="80" as="sourcePoint" />
            <mxPoint x="790" y="30" as="targetPoint" />
          </mxGeometry>
        </mxCell>
        <mxCell id="FUKCDuMdCEa6yZgynZya-33" value="" style="triangle;whiteSpace=wrap;html=1;direction=north;fillColor=#000000;" parent="WIyWlLk6GJQsqaUBKTNV-1" vertex="1">
          <mxGeometry x="1052" y="-115" width="10" height="10" as="geometry" />
        </mxCell>
        <mxCell id="FUKCDuMdCEa6yZgynZya-34" value="redirect&amp;nbsp;&lt;br&gt;to" style="text;html=1;align=center;verticalAlign=middle;resizable=0;points=[];autosize=1;strokeColor=none;fillColor=none;" parent="WIyWlLk6GJQsqaUBKTNV-1" vertex="1">
          <mxGeometry x="1022" y="-107" width="70" height="40" as="geometry" />
        </mxCell>
        <mxCell id="FUKCDuMdCEa6yZgynZya-36" value="" style="endArrow=classic;html=1;rounded=0;entryX=-0.006;entryY=0.63;entryDx=0;entryDy=0;entryPerimeter=0;exitX=1.011;exitY=0.413;exitDx=0;exitDy=0;exitPerimeter=0;" parent="WIyWlLk6GJQsqaUBKTNV-1" source="FUKCDuMdCEa6yZgynZya-3" target="FUKCDuMdCEa6yZgynZya-4" edge="1">
          <mxGeometry width="50" height="50" relative="1" as="geometry">
            <mxPoint x="740" y="80" as="sourcePoint" />
            <mxPoint x="790" y="30" as="targetPoint" />
          </mxGeometry>
        </mxCell>
        <mxCell id="FUKCDuMdCEa6yZgynZya-37" value="contains&lt;br&gt;" style="text;html=1;align=center;verticalAlign=middle;resizable=0;points=[];autosize=1;strokeColor=none;fillColor=none;" parent="WIyWlLk6GJQsqaUBKTNV-1" vertex="1">
          <mxGeometry x="1130" y="-250" width="70" height="30" as="geometry" />
        </mxCell>
        <mxCell id="FUKCDuMdCEa6yZgynZya-38" value="" style="triangle;whiteSpace=wrap;html=1;direction=east;fillColor=#000000;" parent="WIyWlLk6GJQsqaUBKTNV-1" vertex="1">
          <mxGeometry x="1190" y="-240" width="10" height="10" as="geometry" />
        </mxCell>
        <mxCell id="FUKCDuMdCEa6yZgynZya-39" value="1" style="text;html=1;align=center;verticalAlign=middle;resizable=0;points=[];autosize=1;strokeColor=none;fillColor=none;" parent="WIyWlLk6GJQsqaUBKTNV-1" vertex="1">
          <mxGeometry x="1200" y="-250" width="30" height="30" as="geometry" />
        </mxCell>
        <mxCell id="FUKCDuMdCEa6yZgynZya-40" value="" style="endArrow=block;html=1;rounded=0;endFill=1;startSize=0;strokeWidth=0;endSize=12;" parent="WIyWlLk6GJQsqaUBKTNV-1" edge="1">
          <mxGeometry width="50" height="50" relative="1" as="geometry">
            <mxPoint x="1175.3100000000002" y="320" as="sourcePoint" />
            <mxPoint x="1174.9700000000003" y="340" as="targetPoint" />
            <Array as="points">
              <mxPoint x="1174.66" y="330" />
            </Array>
          </mxGeometry>
        </mxCell>
        <mxCell id="FUKCDuMdCEa6yZgynZya-41" value="" style="endArrow=none;html=1;rounded=0;strokeWidth=1;startSize=0;endSize=6;exitX=0.999;exitY=0.551;exitDx=0;exitDy=0;exitPerimeter=0;entryX=-0.005;entryY=0.515;entryDx=0;entryDy=0;entryPerimeter=0;" parent="WIyWlLk6GJQsqaUBKTNV-1" source="FUKCDuMdCEa6yZgynZya-14" target="FUKCDuMdCEa6yZgynZya-5" edge="1">
          <mxGeometry width="50" height="50" relative="1" as="geometry">
            <mxPoint x="20" y="470" as="sourcePoint" />
            <mxPoint x="70" y="420" as="targetPoint" />
          </mxGeometry>
        </mxCell>
        <mxCell id="FUKCDuMdCEa6yZgynZya-42" value="" style="triangle;whiteSpace=wrap;html=1;direction=west;fillColor=#000000;" parent="WIyWlLk6GJQsqaUBKTNV-1" vertex="1">
          <mxGeometry x="-180" y="498.75" width="10" height="10" as="geometry" />
        </mxCell>
        <mxCell id="FUKCDuMdCEa6yZgynZya-43" value="redirect&lt;br&gt;to" style="text;html=1;align=center;verticalAlign=middle;resizable=0;points=[];autosize=1;strokeColor=none;fillColor=none;" parent="WIyWlLk6GJQsqaUBKTNV-1" vertex="1">
          <mxGeometry x="-170" y="480" width="60" height="40" as="geometry" />
        </mxCell>
        <mxCell id="FUKCDuMdCEa6yZgynZya-44" value="" style="endArrow=classic;html=1;rounded=0;labelBackgroundColor=default;strokeColor=default;strokeWidth=1;fontFamily=Helvetica;fontSize=11;fontColor=default;startSize=0;endSize=6;shape=connector;entryX=0.565;entryY=1.006;entryDx=0;entryDy=0;entryPerimeter=0;" parent="WIyWlLk6GJQsqaUBKTNV-1" target="FUKCDuMdCEa6yZgynZya-1" edge="1">
          <mxGeometry width="50" height="50" relative="1" as="geometry">
            <mxPoint x="-600" y="690" as="sourcePoint" />
            <mxPoint x="990" y="730" as="targetPoint" />
            <Array as="points">
              <mxPoint x="-610" y="1150" />
              <mxPoint x="1120" y="1150" />
            </Array>
          </mxGeometry>
        </mxCell>
        <mxCell id="FUKCDuMdCEa6yZgynZya-45" value="contains&lt;br&gt;" style="text;html=1;align=center;verticalAlign=middle;resizable=0;points=[];autosize=1;strokeColor=none;fillColor=none;" parent="WIyWlLk6GJQsqaUBKTNV-1" vertex="1">
          <mxGeometry x="1100" y="677.5" width="70" height="30" as="geometry" />
        </mxCell>
        <mxCell id="FUKCDuMdCEa6yZgynZya-46" value="" style="triangle;whiteSpace=wrap;html=1;direction=north;fillColor=#000000;" parent="WIyWlLk6GJQsqaUBKTNV-1" vertex="1">
          <mxGeometry x="1130" y="667.5" width="10" height="10" as="geometry" />
        </mxCell>
        <mxCell id="FUKCDuMdCEa6yZgynZya-47" value="1" style="text;html=1;align=center;verticalAlign=middle;resizable=0;points=[];autosize=1;strokeColor=none;fillColor=none;" parent="WIyWlLk6GJQsqaUBKTNV-1" vertex="1">
          <mxGeometry x="1100" y="505" width="30" height="30" as="geometry" />
        </mxCell>
      </root>
    </mxGraphModel>
  </diagram>
</mxfile>
